<svg x="0" y="0" width="48" height="48" version="1.1" xmlns="http://www.w3.org/2000/svg" xmlns:xlink="http://www.w3.org/1999/xlink"><defs><linearGradient x1="11.68966" y1="20.06194" x2="57.52354" y2="49.15126" gradientUnits="userSpaceOnUse" id="color-1"><stop offset="0" stop-color="#000000" stop-opacity="0.7"></stop><stop offset="1" stop-color="#000000" stop-opacity="0"></stop></linearGradient><filter id="dropshadow"><feColorMatrix type="matrix" values="0 0 0 0 .05  0 0 0 0 .15  0 0 0 0 .1  0 0 0 .8 0"></feColorMatrix> <feOffset dx="0" dy="1"></feOffset> <feGaussianBlur stdDeviation="1"></feGaussianBlur> <feComposite in="SourceGraphic"></feComposite></filter></defs><g fill="none" stroke="none" stroke-width="none" stroke-linecap="butt" stroke-linejoin="miter" stroke-miterlimit="none" stroke-dasharray="" stroke-dashoffset="0" font-family="none" font-weight="none" font-size="none" text-anchor="start" mix-blend-mode="normal"><g id="SVGRoot" fill="#000000" stroke="none" stroke-width="1" stroke-miterlimit="4" font-family="&quot;Open Sans&quot;, sans-serif" font-weight="400" font-size="14"><g id="layer1"></g></g><path d="M3,24c0,-11.59798 9.40202,-21 21,-21c11.59798,0 21,9.40202 21,21c0,11.59798 -9.40202,21 -21,21c-11.59798,0 -21,-9.40202 -21,-21z" fill="#4d4d4d" stroke-width="1" stroke-miterlimit="10" font-family="sans-serif" font-weight="normal" font-size="12" filter="url(#dropshadow)"></path><path d="M28.30908,44.55748l-16.61942,-16.61942l2.36955,-7.75141l2.05297,0l0.00001,0.00001l0,-0.00001l3.86521,3.86521l0,-3.8652l-0.00001,-0.00001l1.71721,0l3.91753,3.91753l0,-0.55986c0,0 -1.92826,-1.92826 -1.92826,-1.92826l0,-1.42941l5.58332,0c0,0 1.75765,1.75765 1.75765,1.75765c0.58269,-1.21547 1.74328,-1.88236 3.01188,-1.88236c0.91696,0 1.65693,0.41918 2.14648,0.90873l8.18041,8.18041c-1.95125,7.73791 -8.19714,13.76776 -16.05453,15.4064z" fill="url(#color-1)" stroke-width="1" stroke-miterlimit="10" font-family="sans-serif" font-weight="normal" font-size="12"></path><path d="M14.05921,20.18665l2.05297,0l2.21606,7.75141l-1.80355,0l-0.41251,-1.64046l-2.11053,0l-0.41251,1.64046l-1.89948,0z M33.97916,27.46799c-1.81314,0 -3.34807,-1.24713 -3.34807,-3.66465c0,-2.37915 1.59249,-3.7414 3.40563,-3.7414c0.93055,0 1.67883,0.4317 2.16809,0.93055l-0.89218,1.09364c-0.36455,-0.32617 -0.73869,-0.55641 -1.24713,-0.55641c-0.92096,0 -1.67883,0.82503 -1.67883,2.21606c0,1.41981 0.65235,2.24484 1.65965,2.24484c0.5756,0 1.02649,-0.2878 1.36225,-0.65235l0.90177,1.07445c-0.60438,0.70031 -1.40063,1.05527 -2.33118,1.05527z M25.61213,21.61606l-1.92826,0l0,-1.42941l5.58332,0l0,1.42941l-1.93785,0l0,5.71762l-1.71721,0z M19.9774,20.18665l1.71721,0l0,7.14703l-1.71721,0z M14.32783,24.36934l1.45819,0l-0.15349,-0.60438c-0.19187,-0.70991 -0.37414,-1.56371 -0.56601,-2.29281l-0.03837,0c-0.17268,0.74828 -0.36455,1.5829 -0.54682,2.29281z" fill="#ffffff" stroke-width="0" stroke-miterlimit="10" font-family="sans-serif" font-weight="normal" font-size="12"></path></g></svg>